<?xml version="1.0" encoding="utf-8"?>
<!-- Generator: Adobe Illustrator 16.0.0, SVG Export Plug-In . SVG Version: 6.00 Build 0)  -->
<!DOCTYPE svg PUBLIC "-//W3C//DTD SVG 1.1//EN" "http://www.w3.org/Graphics/SVG/1.1/DTD/svg11.dtd">
<svg version="1.1" id="Layer_1" xmlns="http://www.w3.org/2000/svg" xmlns:xlink="http://www.w3.org/1999/xlink" x="0px" y="0px"
	 width="26.703px" height="26.703px" viewBox="0 0 26.703 26.703" enable-background="new 0 0 26.703 26.703" xml:space="preserve">
<path fill-rule="evenodd" clip-rule="evenodd" fill="#ECC551" d="M4.759,9.183c0-0.24,0-0.479,0-0.72
	c0.007-0.04,0.014-0.081,0.019-0.122c0.038-0.324,0.058-0.653,0.117-0.974c0.349-1.908,1.219-3.545,2.663-4.839
	c2.232-2,4.843-2.689,7.763-2.027c2.334,0.53,4.117,1.88,5.374,3.912c0.66,1.065,1.049,2.229,1.189,3.476
	c0.021,0.191,0.041,0.384,0.061,0.574c0,0.24,0,0.479,0,0.72c-0.024,0.185-0.046,0.369-0.075,0.553
	c-0.121,0.753-0.34,1.479-0.594,2.197c-0.521,1.472-1.177,2.886-1.883,4.275c-1.786,3.512-3.828,6.874-5.989,10.164
	c-0.015,0.024-0.033,0.046-0.054,0.074c-0.026-0.038-0.048-0.068-0.069-0.101c-0.456-0.706-0.918-1.41-1.367-2.122
	c-1.531-2.427-2.99-4.895-4.312-7.443c-0.779-1.503-1.509-3.029-2.093-4.62c-0.291-0.79-0.54-1.593-0.676-2.426
	C4.804,9.552,4.783,9.367,4.759,9.183z M13.35,12.559c2.018,0.001,3.655-1.644,3.653-3.671c-0.002-2.026-1.629-3.664-3.645-3.665
	c-2.024-0.001-3.657,1.633-3.659,3.662C9.697,10.913,11.332,12.559,13.35,12.559z"/>
</svg>
