<?xml version="1.0" encoding="utf-8"?>
<!-- Generator: Adobe Illustrator 27.2.0, SVG Export Plug-In . SVG Version: 6.00 Build 0)  -->
<svg version="1.1" id="Layer_1" xmlns="http://www.w3.org/2000/svg" xmlns:xlink="http://www.w3.org/1999/xlink" x="0px" y="0px"
	 viewBox="0 0 26.7 26.7" style="enable-background:new 0 0 26.7 26.7;" xml:space="preserve">
<g>
	<path d="M19.9,15.5c-0.7-0.7-1.8-0.8-2.7-0.3c-0.4,0.2-0.7,0.5-1,0.8c-0.3,0.3-0.6,0.6-0.9,0.9l-0.2,0.2L15,17
		c-0.2-0.1-0.4-0.2-0.6-0.3c-1-0.6-1.9-1.4-2.8-2.3c-0.7-0.7-1.5-1.6-2-2.8l0.3-0.3c0.4-0.4,0.9-0.9,1.3-1.3c0.8-0.9,0.8-2.3,0-3.2
		c-1.1-1.1-2-2.1-2.9-3c-1.1-1-2.4-1-3.5,0c-0.5,0.4-1,0.9-1.4,1.4L2.9,5.6c-0.5,0.5-0.8,1.1-1,1.8c0,0.2-0.1,0.4-0.1,0.6l0,0.3
		l0,0.7c0,0.3,0.1,0.5,0.1,0.8c0.2,1.1,0.6,2.2,1.2,3.4c1.9,3.8,4.7,6.9,8.4,9.2c1.7,1.1,3.2,1.8,4.7,2.1c0.3,0.1,0.6,0.1,1,0.2
		c0.1,0,0.3,0,0.4,0.1l0.1-0.4l0,0.4l1,0l0.1,0c0.8-0.1,1.5-0.4,2.1-1c0.8-0.8,1.4-1.4,2-2c0.8-0.9,0.8-2.3,0-3.3
		C22,17.7,21,16.7,19.9,15.5z M7.7,12.4c0.4,0.9,1,1.8,1.9,2.8c1.2,1.3,2.4,2.4,3.7,3.2c0.5,0.3,0.9,0.5,1.3,0.7
		c0.6,0.3,1.1,0.2,1.6-0.3c0.3-0.3,0.7-0.7,1-1l0.4-0.4c0.1-0.1,0.1-0.1,0.2-0.2c0.3-0.3,0.5-0.2,0.8,0c0.6,0.6,1.1,1.1,1.7,1.7
		l0.3,0.3c0.3,0.3,0.5,0.5,0.8,0.8c0.2,0.2,0.2,0.4,0,0.7c-0.1,0.1-0.1,0.1-0.2,0.2l-0.5,0.5c-0.3,0.3-0.6,0.6-0.9,1
		c-0.5,0.5-1,0.7-1.8,0.6c-1.1-0.1-2.2-0.4-3.5-1.1c-3.6-1.8-6.5-4.5-8.7-8C4.9,12.3,4.3,10.9,4,9.5C3.9,9.3,3.9,9.1,3.9,8.8l0-0.3
		c0-0.7,0.2-1.2,0.7-1.7C4.8,6.5,5.1,6.2,5.4,6C5.6,5.8,5.8,5.6,6,5.4C6.4,5,6.6,5.1,6.7,5.2c0.1,0,0.2,0.1,0.2,0.2
		C7.6,6.1,8.3,6.8,9,7.5l0.5,0.5C9.5,8,9.5,8,9.6,8c0.3,0.3,0.2,0.5,0,0.7c-0.5,0.5-0.9,1-1.4,1.4C7.4,11,7.3,11.4,7.7,12.4z"/>
	<path d="M24.9,11.9l0-0.2c-0.1-0.6-0.3-1.2-0.5-1.7c-0.7-2-1.8-3.7-3.5-5.2c-1.5-1.4-3.3-2.3-5.3-2.8c-0.2-0.1-0.5-0.1-0.7-0.1
		l-0.3,0l-0.1,0c-0.5,0-1,0.3-1,0.8c-0.1,0.5,0.2,1,0.6,1.1c0.1,0.1,0.3,0.1,0.4,0.1c1.5,0.3,3,0.9,4.2,1.8c1.9,1.5,3.2,3.3,3.9,5.6
		c0,0.2,0.1,0.3,0.1,0.5c0,0.2,0.1,0.4,0.1,0.6c0.1,0.4,0.5,0.7,1,0.7c0.1,0,0.2,0,0.2,0c0.3-0.1,0.5-0.2,0.6-0.4
		C24.9,12.5,24.9,12.2,24.9,11.9z"/>
	<path d="M18.4,11.2c0.1,0.3,0.2,0.6,0.3,0.9c0,0.2,0.1,0.3,0.1,0.5c0.1,0.5,0.5,0.8,1,0.8c0.1,0,0.2,0,0.2,0
		c0.5-0.1,0.9-0.7,0.8-1.2c-0.5-2.6-2-4.5-4.5-5.7c-0.6-0.3-1.2-0.4-1.8-0.5l-0.1,0c-0.3,0-0.6,0.1-0.8,0.3
		c-0.2,0.2-0.3,0.4-0.3,0.7c0,0.5,0.3,0.9,0.9,1C16.2,8.3,17.6,9.4,18.4,11.2z"/>
</g>
</svg>
