<?xml version="1.0" encoding="utf-8"?>
<!-- Generator: Adobe Illustrator 16.0.0, SVG Export Plug-In . SVG Version: 6.00 Build 0)  -->
<!DOCTYPE svg PUBLIC "-//W3C//DTD SVG 1.1//EN" "http://www.w3.org/Graphics/SVG/1.1/DTD/svg11.dtd">
<svg version="1.1" id="Layer_1" xmlns="http://www.w3.org/2000/svg" xmlns:xlink="http://www.w3.org/1999/xlink" x="0px" y="0px"
	 width="26.703px" height="26.703px" viewBox="0 0 26.703 26.703" enable-background="new 0 0 26.703 26.703" xml:space="preserve">
<path fill="#020101" d="M21.388,5.268c-2.132-2.135-4.968-3.311-7.989-3.312c-6.225,0-11.292,5.066-11.294,11.293
	c-0.001,1.991,0.52,3.934,1.507,5.646L2.01,24.748l5.986-1.571c1.65,0.9,3.508,1.374,5.397,1.375h0.005
	c6.226,0,11.292-5.066,11.293-11.294C24.693,10.24,23.521,7.402,21.388,5.268 M13.399,22.645h-0.004
	c-1.684-0.002-3.336-0.454-4.778-1.31l-0.342-0.203l-3.553,0.933L5.67,18.6l-0.224-0.355c-0.939-1.494-1.436-3.222-1.435-4.995
	c0.001-5.176,4.213-9.387,9.391-9.387c2.507,0.001,4.864,0.979,6.636,2.753c1.773,1.774,2.748,4.133,2.747,6.641
	C22.784,18.432,18.573,22.645,13.399,22.645 M18.548,15.614c-0.282-0.142-1.67-0.824-1.929-0.918
	c-0.259-0.094-0.446-0.141-0.635,0.141c-0.188,0.283-0.729,0.918-0.894,1.107c-0.165,0.188-0.329,0.212-0.611,0.069
	c-0.282-0.141-1.192-0.438-2.27-1.401c-0.84-0.748-1.405-1.672-1.57-1.954c-0.164-0.283-0.001-0.421,0.124-0.576
	c0.306-0.38,0.612-0.777,0.706-0.966c0.094-0.188,0.047-0.353-0.024-0.494c-0.069-0.141-0.635-1.53-0.87-2.095
	c-0.229-0.55-0.462-0.476-0.635-0.485C9.777,8.035,9.588,8.033,9.4,8.033c-0.188,0-0.494,0.071-0.752,0.354
	C8.389,8.668,7.66,9.352,7.66,10.741c0,1.389,1.012,2.731,1.152,2.919s1.99,3.039,4.821,4.261c0.673,0.291,1.199,0.465,1.608,0.595
	c0.677,0.215,1.291,0.185,1.777,0.111c0.543-0.081,1.67-0.682,1.905-1.341c0.234-0.66,0.234-1.226,0.165-1.342
	C19.018,15.826,18.83,15.754,18.548,15.614"/>
</svg>
