<?xml version="1.0" standalone="no"?>
<!DOCTYPE svg PUBLIC "-//W3C//DTD SVG 20010904//EN"
 "http://www.w3.org/TR/2001/REC-SVG-20010904/DTD/svg10.dtd">
<svg version="1.0" xmlns="http://www.w3.org/2000/svg"
 width="256.000000pt" height="256.000000pt" viewBox="0 0 256.000000 256.000000"
 preserveAspectRatio="xMidYMid meet">

<g transform="translate(0.000000,256.000000) scale(0.100000,-0.100000)"
fill="#000000" stroke="none">
<path d="M1000 2540 c-494 -106 -892 -510 -984 -1000 -21 -111 -21 -389 0
-500 71 -375 331 -717 679 -892 767 -387 1690 82 1836 930 115 677 -342 1339
-1011 1466 -119 23 -407 21 -520 -4z m430 -61 c353 -43 683 -257 872 -566 69
-113 94 -173 134 -328 31 -117 35 -143 35 -266 0 -75 -7 -176 -15 -225 -17
-103 -73 -268 -116 -337 -17 -27 -30 -50 -30 -53 0 -3 -20 -35 -44 -72 -132
-199 -360 -371 -606 -455 -326 -112 -713 -66 -1021 120 -140 85 -275 223 -377
386 -50 80 -67 117 -115 247 -37 102 -67 269 -67 371 0 176 64 415 153 573 58
103 125 191 214 277 97 95 163 142 278 201 227 115 461 158 705 127z"/>
<path d="M784 1813 l-39 -98 -108 -3 c-59 -1 -107 -6 -107 -10 0 -4 39 -36 85
-71 47 -35 85 -66 85 -70 0 -3 -13 -50 -29 -103 -15 -54 -26 -100 -24 -102 2
-2 44 24 93 57 l89 60 86 -57 c48 -31 90 -56 95 -54 4 2 -6 48 -22 103 -30 98
-30 99 -11 115 11 8 48 36 81 62 34 27 62 52 62 58 0 6 -39 10 -97 10 -54 0
-103 4 -108 8 -6 4 -26 49 -45 100 -19 50 -37 92 -41 92 -4 0 -24 -44 -45 -97z"/>
<path d="M1476 1803 c-48 -129 -41 -123 -156 -123 -55 0 -100 -4 -100 -8 0 -5
36 -37 80 -71 44 -34 80 -67 80 -74 0 -7 -12 -53 -26 -101 -14 -49 -23 -90
-20 -93 3 -3 43 20 89 51 46 31 87 56 91 56 3 0 44 -25 91 -57 47 -31 87 -54
90 -51 3 3 -8 49 -24 103 l-29 98 26 21 c15 12 54 44 87 71 l60 50 -109 5
c-124 6 -111 -4 -157 118 -17 45 -34 82 -37 82 -4 0 -20 -35 -36 -77z"/>
<path d="M422 1619 c-39 -147 -64 -375 -44 -405 12 -18 92 -55 112 -52 18 3
18 5 -1 58 -35 97 -52 182 -59 295 -4 61 -7 107 -8 104z"/>
<path d="M2182 1215 c-29 -95 -123 -234 -218 -325 l-77 -73 -13 24 c-24 43
-16 57 64 120 42 34 78 67 80 74 2 8 -10 12 -35 11 -21 0 -70 1 -109 2 l-71 2
-33 88 c-50 133 -52 133 -97 -5 l-27 -83 -56 0 c-75 0 -160 -11 -160 -20 0 -5
36 -34 80 -67 43 -32 79 -65 80 -72 0 -8 -12 -53 -26 -99 -14 -46 -24 -90 -22
-98 2 -10 26 2 83 42 44 31 85 58 92 61 7 3 27 -5 44 -18 l32 -22 -39 -20
c-200 -103 -453 -124 -683 -57 l-114 34 39 32 c74 63 71 63 170 -5 49 -34 90
-57 92 -51 2 5 -8 50 -22 99 -14 49 -26 94 -26 100 0 5 34 36 75 68 41 31 75
63 75 70 0 10 -24 13 -92 13 -51 0 -99 4 -106 9 -7 4 -28 48 -46 97 -19 48
-38 90 -43 91 -5 2 -24 -37 -42 -87 -18 -50 -38 -94 -45 -98 -6 -4 -29 -7 -51
-7 -106 -1 -155 -6 -155 -14 0 -6 36 -38 80 -72 44 -34 80 -67 80 -73 0 -7 -9
-40 -21 -74 -20 -58 -22 -61 -42 -50 -66 35 -186 144 -264 241 -37 47 -70 75
-106 93 -29 15 -67 37 -84 51 l-33 24 0 -44 c0 -84 74 -251 166 -374 65 -87
183 -191 279 -244 39 -22 120 -55 180 -75 98 -31 124 -36 245 -39 137 -5 179
1 305 37 181 52 383 198 488 352 37 54 93 165 112 219 17 49 48 252 42 270 -2
6 -13 -20 -25 -58z"/>
</g>
</svg>
